<?xml version="1.0" standalone="no"?>
<!DOCTYPE svg PUBLIC "-//W3C//DTD SVG 20010904//EN"
 "http://www.w3.org/TR/2001/REC-SVG-20010904/DTD/svg10.dtd">
<svg version="1.0" xmlns="http://www.w3.org/2000/svg"
 width="515.000000pt" height="520.000000pt" viewBox="0 0 515.000000 520.000000"
 preserveAspectRatio="xMidYMid meet">

<g transform="translate(0.000000,520.000000) scale(0.100000,-0.100000)"
fill="#000000" stroke="none">
<path d="M1146 4319 c-85 -171 -152 -309 -148 -307 97 43 89 32 222 299 l125
249 376 0 376 0 61 31 c34 17 62 32 62 35 0 2 -207 4 -459 4 l-459 0 -156
-311z"/>
<path d="M2950 4595 l65 -34 395 -1 395 0 130 -261 c130 -260 130 -261 177
-285 26 -13 50 -24 53 -24 3 0 -67 144 -155 320 l-160 320 -483 0 -482 -1 65
-34z"/>
<path d="M2878 3894 c184 -54 315 -133 452 -273 192 -196 291 -435 293 -706 1
-134 -15 -231 -58 -352 -71 -199 -124 -268 -522 -685 l-103 -107 0 -226 0
-225 28 0 c50 0 52 7 52 244 l1 221 210 225 c248 265 296 325 355 445 72 147
96 245 101 415 4 119 1 162 -15 240 -79 383 -371 690 -746 785 -126 32 -157
32 -48 -1z"/>
<path d="M4571 3108 l-1 -78 107 -214 107 -214 -108 -212 -107 -213 3 -74 3
-74 144 288 143 288 -145 290 -146 290 0 -77z"/>
<path d="M417 2861 l-129 -258 131 -259 130 -259 0 78 1 77 -91 182 -91 182
92 186 91 185 -3 71 -3 72 -128 -257z"/>
<path d="M2950 1235 l0 -65 40 0 40 0 0 65 0 65 -40 0 -40 0 0 -65z"/>
<path d="M4115 1194 l-50 -26 -128 -259 -128 -259 -392 0 -392 -1 -65 -34 -65
-34 477 -1 478 0 160 320 c88 176 159 320 158 319 -2 0 -25 -12 -53 -25z"/>
<path d="M1145 890 l155 -310 463 0 462 1 -65 34 -65 34 -375 1 -375 0 -124
249 -124 249 -54 26 -53 26 155 -310z"/>
<path d="M2950 1071 l0 -71 40 0 41 0 -3 68 -3 67 -37 3 -38 3 0 -70z"/>
<path d="M2950 903 l0 -69 40 4 41 4 -3 62 -3 61 -37 3 -38 3 0 -68z"/>
<path d="M2763 793 c-17 -21 -50 -48 -74 -61 l-44 -24 45 7 c55 7 122 45 150
85 l21 30 -34 0 c-27 0 -40 -7 -64 -37z"/>
</g>
</svg>
